<mxfile host="Electron" agent="Mozilla/5.0 (Windows NT 10.0; Win64; x64) AppleWebKit/537.36 (KHTML, like Gecko) draw.io/28.2.5 Chrome/138.0.7204.251 Electron/37.6.1 Safari/537.36" version="28.2.5">
  <diagram name="Seite-1" id="xJzQmsj6NqS_j55oCf52">
    <mxGraphModel dx="1895" dy="2482" grid="1" gridSize="10" guides="1" tooltips="1" connect="1" arrows="1" fold="1" page="1" pageScale="1" pageWidth="827" pageHeight="1169" math="0" shadow="0">
      <root>
        <mxCell id="0" />
        <mxCell id="1" parent="0" />
        <mxCell id="EHAzYns4ENFAX8Pl9VZF-3" style="edgeStyle=orthogonalEdgeStyle;rounded=0;orthogonalLoop=1;jettySize=auto;html=1;exitX=0.5;exitY=1;exitDx=0;exitDy=0;entryX=0.5;entryY=0;entryDx=0;entryDy=0;" edge="1" parent="1" source="EHAzYns4ENFAX8Pl9VZF-1" target="EHAzYns4ENFAX8Pl9VZF-2">
          <mxGeometry relative="1" as="geometry" />
        </mxCell>
        <mxCell id="EHAzYns4ENFAX8Pl9VZF-1" value="Start" style="rounded=1;whiteSpace=wrap;html=1;" vertex="1" parent="1">
          <mxGeometry x="200" y="-80" width="120" height="60" as="geometry" />
        </mxCell>
        <mxCell id="EHAzYns4ENFAX8Pl9VZF-25" style="edgeStyle=orthogonalEdgeStyle;rounded=0;orthogonalLoop=1;jettySize=auto;html=1;exitX=0.5;exitY=1;exitDx=0;exitDy=0;entryX=0.5;entryY=0;entryDx=0;entryDy=0;" edge="1" parent="1" source="EHAzYns4ENFAX8Pl9VZF-2" target="EHAzYns4ENFAX8Pl9VZF-24">
          <mxGeometry relative="1" as="geometry" />
        </mxCell>
        <mxCell id="EHAzYns4ENFAX8Pl9VZF-2" value="Nimm ein Random Wort" style="rounded=1;whiteSpace=wrap;html=1;" vertex="1" parent="1">
          <mxGeometry x="200" y="40" width="120" height="60" as="geometry" />
        </mxCell>
        <mxCell id="EHAzYns4ENFAX8Pl9VZF-9" style="edgeStyle=orthogonalEdgeStyle;rounded=0;orthogonalLoop=1;jettySize=auto;html=1;exitX=0.5;exitY=1;exitDx=0;exitDy=0;entryX=0.5;entryY=0;entryDx=0;entryDy=0;" edge="1" parent="1" source="EHAzYns4ENFAX8Pl9VZF-4" target="EHAzYns4ENFAX8Pl9VZF-6">
          <mxGeometry relative="1" as="geometry" />
        </mxCell>
        <mxCell id="EHAzYns4ENFAX8Pl9VZF-10" style="edgeStyle=orthogonalEdgeStyle;rounded=0;orthogonalLoop=1;jettySize=auto;html=1;exitX=0.5;exitY=1;exitDx=0;exitDy=0;entryX=0.5;entryY=0;entryDx=0;entryDy=0;" edge="1" parent="1" source="EHAzYns4ENFAX8Pl9VZF-4" target="EHAzYns4ENFAX8Pl9VZF-7">
          <mxGeometry relative="1" as="geometry" />
        </mxCell>
        <mxCell id="EHAzYns4ENFAX8Pl9VZF-35" style="edgeStyle=orthogonalEdgeStyle;rounded=0;orthogonalLoop=1;jettySize=auto;html=1;exitX=1;exitY=0.25;exitDx=0;exitDy=0;entryX=0;entryY=0.25;entryDx=0;entryDy=0;" edge="1" parent="1" source="EHAzYns4ENFAX8Pl9VZF-4" target="EHAzYns4ENFAX8Pl9VZF-32">
          <mxGeometry relative="1" as="geometry" />
        </mxCell>
        <mxCell id="EHAzYns4ENFAX8Pl9VZF-4" value="Frage User nach einem Buchstaben" style="rounded=1;whiteSpace=wrap;html=1;" vertex="1" parent="1">
          <mxGeometry x="80" y="270" width="120" height="60" as="geometry" />
        </mxCell>
        <mxCell id="EHAzYns4ENFAX8Pl9VZF-12" style="edgeStyle=orthogonalEdgeStyle;rounded=0;orthogonalLoop=1;jettySize=auto;html=1;exitX=1;exitY=0.5;exitDx=0;exitDy=0;entryX=1;entryY=0.5;entryDx=0;entryDy=0;" edge="1" parent="1" source="EHAzYns4ENFAX8Pl9VZF-6" target="EHAzYns4ENFAX8Pl9VZF-24">
          <mxGeometry relative="1" as="geometry" />
        </mxCell>
        <mxCell id="EHAzYns4ENFAX8Pl9VZF-18" style="edgeStyle=orthogonalEdgeStyle;rounded=0;orthogonalLoop=1;jettySize=auto;html=1;exitX=0.5;exitY=1;exitDx=0;exitDy=0;entryX=0.5;entryY=0;entryDx=0;entryDy=0;" edge="1" parent="1" source="EHAzYns4ENFAX8Pl9VZF-6" target="EHAzYns4ENFAX8Pl9VZF-17">
          <mxGeometry relative="1" as="geometry" />
        </mxCell>
        <mxCell id="EHAzYns4ENFAX8Pl9VZF-6" value="Buchstabe kommt nich im Wort for" style="rounded=1;whiteSpace=wrap;html=1;" vertex="1" parent="1">
          <mxGeometry x="320" y="370" width="120" height="60" as="geometry" />
        </mxCell>
        <mxCell id="EHAzYns4ENFAX8Pl9VZF-11" style="edgeStyle=orthogonalEdgeStyle;rounded=0;orthogonalLoop=1;jettySize=auto;html=1;exitX=0;exitY=0.5;exitDx=0;exitDy=0;entryX=0;entryY=0.5;entryDx=0;entryDy=0;" edge="1" parent="1" source="EHAzYns4ENFAX8Pl9VZF-7" target="EHAzYns4ENFAX8Pl9VZF-24">
          <mxGeometry relative="1" as="geometry">
            <Array as="points">
              <mxPoint x="60" y="400" />
              <mxPoint x="60" y="190" />
            </Array>
          </mxGeometry>
        </mxCell>
        <mxCell id="EHAzYns4ENFAX8Pl9VZF-14" style="edgeStyle=orthogonalEdgeStyle;rounded=0;orthogonalLoop=1;jettySize=auto;html=1;exitX=0.5;exitY=1;exitDx=0;exitDy=0;entryX=0.5;entryY=0;entryDx=0;entryDy=0;" edge="1" parent="1" source="EHAzYns4ENFAX8Pl9VZF-7" target="EHAzYns4ENFAX8Pl9VZF-13">
          <mxGeometry relative="1" as="geometry" />
        </mxCell>
        <mxCell id="EHAzYns4ENFAX8Pl9VZF-7" value="Buchstabe kommt im Wort vor" style="rounded=1;whiteSpace=wrap;html=1;" vertex="1" parent="1">
          <mxGeometry x="80" y="370" width="120" height="60" as="geometry" />
        </mxCell>
        <mxCell id="EHAzYns4ENFAX8Pl9VZF-16" style="edgeStyle=orthogonalEdgeStyle;rounded=0;orthogonalLoop=1;jettySize=auto;html=1;exitX=0.5;exitY=1;exitDx=0;exitDy=0;entryX=0;entryY=0.25;entryDx=0;entryDy=0;" edge="1" parent="1" source="EHAzYns4ENFAX8Pl9VZF-13" target="EHAzYns4ENFAX8Pl9VZF-27">
          <mxGeometry relative="1" as="geometry">
            <mxPoint x="190" y="740" as="targetPoint" />
          </mxGeometry>
        </mxCell>
        <mxCell id="EHAzYns4ENFAX8Pl9VZF-13" value="User hat alle Buchstaben erraten" style="rounded=1;whiteSpace=wrap;html=1;" vertex="1" parent="1">
          <mxGeometry x="80" y="480" width="120" height="60" as="geometry" />
        </mxCell>
        <mxCell id="EHAzYns4ENFAX8Pl9VZF-15" value="Ende" style="rounded=1;whiteSpace=wrap;html=1;" vertex="1" parent="1">
          <mxGeometry x="200" y="720" width="120" height="60" as="geometry" />
        </mxCell>
        <mxCell id="EHAzYns4ENFAX8Pl9VZF-19" style="edgeStyle=orthogonalEdgeStyle;rounded=0;orthogonalLoop=1;jettySize=auto;html=1;exitX=0.5;exitY=1;exitDx=0;exitDy=0;entryX=1;entryY=0.5;entryDx=0;entryDy=0;" edge="1" parent="1" source="EHAzYns4ENFAX8Pl9VZF-17" target="EHAzYns4ENFAX8Pl9VZF-27">
          <mxGeometry relative="1" as="geometry" />
        </mxCell>
        <mxCell id="EHAzYns4ENFAX8Pl9VZF-17" value="User hat alle KÃ¶rperteile verbraucht" style="rounded=1;whiteSpace=wrap;html=1;" vertex="1" parent="1">
          <mxGeometry x="320" y="480" width="120" height="60" as="geometry" />
        </mxCell>
        <mxCell id="EHAzYns4ENFAX8Pl9VZF-26" style="edgeStyle=orthogonalEdgeStyle;rounded=0;orthogonalLoop=1;jettySize=auto;html=1;exitX=0.5;exitY=1;exitDx=0;exitDy=0;entryX=0.5;entryY=0;entryDx=0;entryDy=0;" edge="1" parent="1" source="EHAzYns4ENFAX8Pl9VZF-24" target="EHAzYns4ENFAX8Pl9VZF-4">
          <mxGeometry relative="1" as="geometry" />
        </mxCell>
        <mxCell id="EHAzYns4ENFAX8Pl9VZF-24" value="Zeige den Hangman mit den Buhstaben die erraten wurden" style="rounded=1;whiteSpace=wrap;html=1;" vertex="1" parent="1">
          <mxGeometry x="200" y="160" width="120" height="60" as="geometry" />
        </mxCell>
        <mxCell id="EHAzYns4ENFAX8Pl9VZF-28" style="edgeStyle=orthogonalEdgeStyle;rounded=0;orthogonalLoop=1;jettySize=auto;html=1;exitX=0.5;exitY=1;exitDx=0;exitDy=0;entryX=0.5;entryY=0;entryDx=0;entryDy=0;" edge="1" parent="1" source="EHAzYns4ENFAX8Pl9VZF-27" target="EHAzYns4ENFAX8Pl9VZF-15">
          <mxGeometry relative="1" as="geometry" />
        </mxCell>
        <mxCell id="EHAzYns4ENFAX8Pl9VZF-31" style="edgeStyle=orthogonalEdgeStyle;rounded=0;orthogonalLoop=1;jettySize=auto;html=1;exitX=0;exitY=0.75;exitDx=0;exitDy=0;entryX=0;entryY=0.5;entryDx=0;entryDy=0;" edge="1" parent="1" source="EHAzYns4ENFAX8Pl9VZF-27" target="EHAzYns4ENFAX8Pl9VZF-2">
          <mxGeometry relative="1" as="geometry">
            <Array as="points">
              <mxPoint x="40" y="645" />
              <mxPoint x="40" y="70" />
            </Array>
          </mxGeometry>
        </mxCell>
        <mxCell id="EHAzYns4ENFAX8Pl9VZF-27" value="Frage User um erneut zu spielen" style="rounded=1;whiteSpace=wrap;html=1;" vertex="1" parent="1">
          <mxGeometry x="200" y="600" width="120" height="60" as="geometry" />
        </mxCell>
        <mxCell id="EHAzYns4ENFAX8Pl9VZF-36" style="edgeStyle=orthogonalEdgeStyle;rounded=0;orthogonalLoop=1;jettySize=auto;html=1;exitX=0;exitY=0.75;exitDx=0;exitDy=0;entryX=1;entryY=0.75;entryDx=0;entryDy=0;" edge="1" parent="1" source="EHAzYns4ENFAX8Pl9VZF-32" target="EHAzYns4ENFAX8Pl9VZF-4">
          <mxGeometry relative="1" as="geometry" />
        </mxCell>
        <mxCell id="EHAzYns4ENFAX8Pl9VZF-32" value="User hat den Buchstaben schonmal geraten" style="rounded=1;whiteSpace=wrap;html=1;" vertex="1" parent="1">
          <mxGeometry x="320" y="270" width="120" height="60" as="geometry" />
        </mxCell>
      </root>
    </mxGraphModel>
  </diagram>
</mxfile>
